<svg width="17" height="15" viewBox="0 0 17 15" fill="none" xmlns="http://www.w3.org/2000/svg">
    <path d="M17 2.22894C16.3678 2.50625 15.6942 2.69006 14.9919 2.77931C15.7144 2.34794 16.2658 1.67006 16.5251 0.853C15.8514 1.25462 15.1077 1.53831 14.3151 1.69663C13.6754 1.01556 12.7638 0.59375 11.7693 0.59375C9.83981 0.59375 8.28644 2.15988 8.28644 4.07981C8.28644 4.35606 8.30981 4.62169 8.36719 4.87456C5.46975 4.73325 2.90594 3.34456 1.18362 1.22913C0.882937 1.75081 0.706563 2.34794 0.706563 2.99075C0.706563 4.19775 1.32812 5.26769 2.25463 5.88713C1.69469 5.8765 1.14538 5.71394 0.68 5.45788C0.68 5.4685 0.68 5.48231 0.68 5.49612C0.68 7.18975 1.88806 8.5965 3.47225 8.92056C3.18856 8.99813 2.87937 9.03531 2.5585 9.03531C2.33538 9.03531 2.11012 9.02256 1.89869 8.97581C2.35025 10.356 3.63163 11.3707 5.15525 11.4036C3.9695 12.3312 2.46394 12.8901 0.834063 12.8901C0.54825 12.8901 0.274125 12.8773 0 12.8422C1.54381 13.8378 3.37344 14.4062 5.3465 14.4062C11.7597 14.4062 15.266 9.09375 15.266 4.48887C15.266 4.33481 15.2607 4.18606 15.2533 4.03838C15.9449 3.5475 16.5261 2.93444 17 2.22894Z" fill="#03A9F4" />
</svg>
    